<?xml version="1.0" encoding="utf-8"?>
<!-- Generator: Adobe Illustrator 16.0.0, SVG Export Plug-In . SVG Version: 6.00 Build 0)  -->
<!DOCTYPE svg PUBLIC "-//W3C//DTD SVG 1.1//EN" "http://www.w3.org/Graphics/SVG/1.1/DTD/svg11.dtd">
<svg version="1.1" id="Layer_1" xmlns="http://www.w3.org/2000/svg" xmlns:xlink="http://www.w3.org/1999/xlink" x="0px" y="0px"
	 width="193.977px" height="72.992px" viewBox="0 0 193.977 72.992" enable-background="new 0 0 193.977 72.992"
	 xml:space="preserve">
<g>
	<path opacity="0.6" fill="#FFFFFF" d="M65.486,70.757v-3.004l-2.225-3.559l0.9,0.003l1.721,2.842l1.707-2.845h0.9l-2.22,3.559
		v3.004H65.486z"/>
	<path opacity="0.6" fill="#FFFFFF" d="M77.747,67.49c0,0.465-0.086,0.907-0.258,1.321c-0.172,0.415-0.425,0.785-0.758,1.11
		c-0.331,0.321-0.717,0.572-1.154,0.749c-0.438,0.175-0.883,0.263-1.338,0.263c-0.463,0-0.911-0.088-1.339-0.26
		c-0.429-0.179-0.811-0.426-1.144-0.752c-0.333-0.32-0.585-0.693-0.762-1.11c-0.175-0.418-0.262-0.859-0.262-1.321
		c0-0.464,0.087-0.908,0.262-1.327c0.175-0.417,0.428-0.789,0.76-1.112s0.716-0.573,1.15-0.742c0.435-0.173,0.881-0.263,1.335-0.263
		c0.468,0,0.918,0.086,1.346,0.26c0.431,0.17,0.811,0.417,1.143,0.743c0.332,0.32,0.585,0.69,0.76,1.11
		C77.661,66.577,77.747,67.021,77.747,67.49z M74.24,70.199c0.359,0,0.699-0.069,1.022-0.203c0.323-0.136,0.617-0.334,0.88-0.598
		c0.253-0.248,0.446-0.538,0.583-0.866c0.138-0.329,0.208-0.675,0.208-1.043c0-0.373-0.069-0.723-0.205-1.053
		c-0.136-0.33-0.33-0.624-0.583-0.875c-0.254-0.252-0.542-0.447-0.871-0.585c-0.328-0.137-0.672-0.205-1.035-0.205
		c-0.364,0-0.705,0.066-1.035,0.2c-0.327,0.136-0.617,0.332-0.869,0.589c-0.251,0.255-0.445,0.55-0.583,0.878
		c-0.137,0.334-0.207,0.68-0.207,1.05c0,0.367,0.067,0.711,0.2,1.03c0.132,0.319,0.33,0.612,0.587,0.874
		c0.259,0.262,0.55,0.46,0.875,0.598C73.535,70.13,73.877,70.199,74.24,70.199z"/>
	<path opacity="0.6" fill="#FFFFFF" d="M80.736,64.194h0.791v4.084c0,0.665,0.14,1.154,0.422,1.464
		c0.283,0.309,0.727,0.465,1.331,0.465c0.602,0,1.044-0.156,1.328-0.465c0.285-0.31,0.426-0.799,0.426-1.464v-4.084h0.792v4.084
		c0,0.89-0.209,1.552-0.634,1.992c-0.424,0.443-1.063,0.663-1.914,0.663c-0.848,0-1.482-0.219-1.907-0.66
		c-0.426-0.438-0.638-1.103-0.638-1.995v-4.084H80.736z"/>
	<path opacity="0.6" fill="#FFFFFF" d="M89.118,70.757v-6.563h1.542c0.449,0,0.771,0.025,0.963,0.077
		c0.21,0.045,0.393,0.129,0.544,0.25c0.191,0.149,0.344,0.353,0.453,0.607c0.109,0.253,0.163,0.54,0.163,0.854
		c0,0.536-0.15,0.946-0.449,1.226c-0.3,0.28-0.739,0.418-1.324,0.418h-0.138l2.507,3.131h-0.989l-2.397-3.131h-0.111v3.131H89.118z
		 M89.88,64.854v2.193h0.598c0.614,0,1.023-0.078,1.229-0.233c0.204-0.156,0.307-0.433,0.307-0.822c0-0.421-0.105-0.718-0.319-0.885
		c-0.212-0.169-0.618-0.253-1.217-0.253H89.88L89.88,64.854z"/>
	<path opacity="0.6" fill="#FFFFFF" d="M108.175,65.762c-0.317-0.342-0.651-0.594-1.004-0.752c-0.181-0.082-0.365-0.144-0.563-0.188
		c-0.193-0.041-0.398-0.062-0.619-0.062c-0.352,0-0.688,0.072-1.016,0.209c-0.327,0.138-0.615,0.337-0.864,0.595
		c-0.246,0.259-0.433,0.546-0.561,0.868c-0.126,0.32-0.188,0.677-0.188,1.065c0,0.307,0.034,0.588,0.11,0.839
		c0.071,0.254,0.186,0.492,0.337,0.711c0.257,0.371,0.58,0.659,0.969,0.866c0.193,0.097,0.395,0.172,0.6,0.224
		c0.204,0.051,0.42,0.077,0.646,0.077c0.42,0,0.81-0.088,1.169-0.262c0.36-0.175,0.688-0.432,0.982-0.777v1.036
		c-0.325,0.236-0.677,0.413-1.058,0.54c-0.192,0.061-0.386,0.105-0.57,0.135c-0.185,0.03-0.382,0.045-0.59,0.045
		c-0.183,0-0.355-0.012-0.517-0.035c-0.158-0.025-0.326-0.063-0.499-0.12c-0.326-0.098-0.635-0.246-0.924-0.451
		c-0.471-0.327-0.834-0.734-1.091-1.222c-0.26-0.485-0.387-1.017-0.387-1.598c0-0.511,0.084-0.97,0.254-1.384
		c0.171-0.414,0.428-0.79,0.772-1.122c0.331-0.319,0.697-0.563,1.108-0.721c0.405-0.162,0.853-0.244,1.339-0.244
		c0.377,0,0.743,0.057,1.103,0.173c0.359,0.113,0.709,0.294,1.056,0.534v1.017h0.005V65.762z"/>
	<path opacity="0.6" fill="#FFFFFF" d="M111.244,70.757v-6.563h1.543c0.449,0,0.77,0.025,0.965,0.077
		c0.21,0.045,0.392,0.129,0.541,0.25c0.19,0.149,0.344,0.353,0.454,0.607c0.108,0.253,0.161,0.54,0.161,0.854
		c0,0.536-0.148,0.946-0.447,1.226c-0.302,0.28-0.741,0.418-1.325,0.418h-0.139l2.508,3.131h-0.99l-2.398-3.131h-0.11v3.131H111.244
		z M112.007,64.854v2.193h0.597c0.613,0,1.02-0.078,1.228-0.233c0.205-0.156,0.307-0.433,0.307-0.822
		c0-0.421-0.105-0.718-0.319-0.885c-0.212-0.169-0.617-0.253-1.215-0.253H112.007L112.007,64.854z"/>
	<path opacity="0.6" fill="#FFFFFF" d="M117.899,70.757v-6.563h3.466v0.712h-2.683v1.881h2.683v0.727h-2.683v2.519h2.683v0.726
		L117.899,70.757L117.899,70.757z"/>
	<path opacity="0.6" fill="#FFFFFF" d="M126.501,63.933l2.987,6.824h-0.848l-0.854-2.014h-2.564l-0.851,2.018l-0.851-0.004
		L126.501,63.933z M126.502,65.659l-1.045,2.416h2.088L126.502,65.659z"/>
	<path opacity="0.6" fill="#FFFFFF" d="M133.05,70.757v-5.818h-1.855v-0.744h4.496v0.744h-1.85v5.818H133.05z"/>
	<path opacity="0.6" fill="#FFFFFF" d="M138.305,70.757v-6.563h0.782v6.563H138.305z"/>
	<path opacity="0.6" fill="#FFFFFF" d="M144.287,71.01l-2.776-6.814h0.848l1.929,5.014l1.92-5.014h0.843L144.287,71.01z"/>
	<path opacity="0.6" fill="#FFFFFF" d="M149.479,70.757v-6.563h3.466v0.712h-2.683v1.881h2.683v0.727h-2.683v2.519h2.683v0.726
		L149.479,70.757L149.479,70.757z"/>
	<path opacity="0.6" fill="#FFFFFF" d="M166.137,71.015l-2.042-4.715l-0.824,4.455h-0.761l1.331-6.821l2.297,5.427l2.296-5.427
		l1.332,6.821h-0.762l-0.833-4.46L166.137,71.015z"/>
	<path opacity="0.6" fill="#FFFFFF" d="M174.591,63.933l2.987,6.824h-0.848l-0.854-2.014h-2.564l-0.851,2.018l-0.851-0.004
		L174.591,63.933z M174.591,65.659l-1.048,2.416h2.091L174.591,65.659z"/>
	<path opacity="0.6" fill="#FFFFFF" d="M181.139,70.757v-5.818h-1.854v-0.744h4.495v0.744h-1.849v5.818H181.139z"/>
	<path opacity="0.6" fill="#FFFFFF" d="M186.385,70.757v-6.563h3.466v0.712h-2.683v1.881h2.683v0.727h-2.683v2.519h2.683v0.726
		L186.385,70.757L186.385,70.757z"/>
	<g>
		<g>
			<polygon fill="#F1C916" points="74.063,16.627 60.347,16.627 60.339,16.627 60.356,57.253 60.339,57.268 33.119,30.032 
				60.339,2.985 			"/>
		</g>
		<g>
			<path fill="#E3565B" d="M57.265,58.436l-36.77-15.68L35.249,8.051l11.109,4.723L28.963,30.135
				C28.963,30.135,48.794,49.966,57.265,58.436z"/>
		</g>
		<g>
			<polygon fill="#35B89C" points="18.282,45.042 56.148,61.167 2.104,61.167 			"/>
		</g>
		<g>
			<polygon fill="#E7AC22" points="60.339,2.985 60.339,16.627 74.063,16.627 			"/>
		</g>
		<g opacity="0.1" enable-background="new    ">
			<polygon fill="#010101" points="60.339,2.985 60.339,16.627 63.031,16.627 			"/>
		</g>
	</g>
	<g>
		<path fill="#FFFFFF" d="M97.553,26.248c-0.517-1.306-1.277-2.462-2.285-3.47c-0.997-0.997-2.17-1.753-3.521-2.268h0.018
			c-0.963-0.367-2.137-0.63-3.521-0.79c-0.265-0.023-0.729-0.046-1.394-0.069h-23.59v20.771v20.789H86.85
			c0.665-0.022,1.129-0.054,1.394-0.086c1.386-0.15,2.56-0.412,3.521-0.791h-0.018c1.353-0.505,2.523-1.261,3.521-2.269
			c1.008-0.996,1.771-2.154,2.285-3.472c0.424-1.055,0.688-2.278,0.791-3.676v-0.021c0.239-3.08,0.354-6.339,0.344-9.772v-0.019
			c0-0.229,0-0.459,0-0.688s0-0.453,0-0.67v-0.02c0.014-3.447-0.104-6.71-0.344-9.792C98.24,28.544,97.977,27.313,97.553,26.248z
			 M91.094,40.423c0,0.238,0,0.477,0,0.705c0,3.664-0.104,6.773-0.311,9.328c-0.093,1.063-0.426,1.879-0.996,2.438
			c-0.573,0.584-1.375,0.876-2.405,0.876L71.13,53.755V40.423V27.107l16.253-0.018c1.031,0,1.833,0.292,2.405,0.877
			c0.57,0.561,0.903,1.375,0.996,2.439c0.207,2.543,0.311,5.646,0.311,9.313C91.094,39.958,91.094,40.192,91.094,40.423z"/>
	</g>
	<g>
		<path fill="#FFFFFF" d="M182.185,50.231c-0.045,0.538-0.144,1.014-0.292,1.426v-0.033c-0.126,0.332-0.319,0.629-0.584,0.893
			c-0.24,0.24-0.525,0.424-0.856,0.551c-0.447,0.158-1.004,0.273-1.667,0.344c-1.581,0.174-4.514,0.264-8.798,0.273h-0.018
			c-4.468,0-7.438-0.086-8.917-0.258h-0.018c-0.688-0.092-1.255-0.211-1.701-0.359V53.05h-0.02
			c-0.332-0.127-0.611-0.305-0.841-0.533c-0.252-0.252-0.447-0.543-0.584-0.877c-0.161-0.436-0.265-0.938-0.311-1.512
			c-0.22-2.887-0.319-6.02-0.311-9.396c0.011-3.654,0.115-6.935,0.311-9.845c0.045-0.55,0.147-1.037,0.311-1.46
			c0.137-0.344,0.332-0.642,0.584-0.894c0.239-0.218,0.521-0.39,0.841-0.516h0.02c0.445-0.172,1.014-0.292,1.701-0.361
			c2.349-0.298,5.278-0.441,8.797-0.43h0.104c3.757,0,6.677,0.138,8.762,0.413h0.02c0.688,0.091,1.267,0.217,1.735,0.377h0.017
			l0.019,0.017c0.32,0.126,0.597,0.292,0.824,0.499c0.252,0.263,0.446,0.561,0.584,0.894c0.059,0.137,0.12,0.354,0.188,0.652
			l7.403-1.873c-0.138-0.493-0.313-1.008-0.531-1.546c-0.503-1.306-1.268-2.462-2.284-3.47c-0.984-0.985-2.16-1.735-3.521-2.251
			h-0.034c-0.903-0.354-2.032-0.625-3.385-0.808c-2.403-0.332-5.669-0.492-9.792-0.481h-0.086c-3.938,0-7.188,0.161-9.741,0.481
			c-1.406,0.172-2.563,0.436-3.47,0.791c-1.363,0.515-2.543,1.271-3.54,2.268c-0.997,1.008-1.752,2.164-2.269,3.47
			c-0.438,1.065-0.705,2.302-0.809,3.711c-0.206,3.115-0.319,6.563-0.344,10.343c-0.013,3.756,0.107,7.103,0.359,10.032
			c0.104,1.396,0.364,2.617,0.791,3.66c0.517,1.315,1.271,2.476,2.269,3.472c0.984,0.983,2.165,1.739,3.54,2.268
			c0.895,0.345,2.039,0.607,3.438,0.791c1.626,0.229,4.931,0.337,9.911,0.326c4.721,0,7.949-0.108,9.689-0.326h-0.034
			c1.386-0.159,2.556-0.424,3.505-0.791c1.362-0.526,2.537-1.282,3.521-2.268c1.02-1.009,1.787-2.166,2.303-3.472
			c0.504-1.271,0.796-2.662,0.877-4.174H182.185L182.185,50.231L182.185,50.231z"/>
	</g>
	<g>
		<path fill="#FFFFFF" d="M126.923,61.262c4.917-0.086,7.115-2.646,7.115-8.043c-0.335,0.082-0.707,0.146-1.127,0.19h-0.019
			c-1.581,0.173-4.514,0.265-8.797,0.272h-0.018c-4.469,0-7.438-0.086-8.917-0.258c-0.688-0.09-1.262-0.211-1.72-0.358v-0.019
			h-0.018c-0.321-0.125-0.603-0.306-0.843-0.533c-0.252-0.25-0.44-0.543-0.566-0.875c-0.161-0.437-0.264-0.938-0.31-1.512
			c-0.241-2.841-0.36-6.031-0.36-9.57c-0.012-3.618,0.108-6.837,0.36-9.654v-0.018c0.046-0.573,0.146-1.088,0.31-1.546v0.017
			c0.138-0.344,0.326-0.641,0.566-0.894c0.219-0.206,0.498-0.372,0.843-0.498v-0.018h0.018c0.471-0.16,1.049-0.286,1.735-0.378
			h0.018c2.178-0.287,5.099-0.43,8.764-0.43h0.104c3.438,0,6.374,0.149,8.813,0.447h0.018c0.652,0.068,1.208,0.183,1.667,0.343
			v0.017h0.019c0.311,0.115,0.59,0.287,0.842,0.515c0.264,0.264,0.458,0.562,0.584,0.894c0.171,0.458,0.27,0.957,0.292,1.495
			c0.219,2.806-0.078,14.279,0.274,20.623c0.306,5.434,1.638,9.852,9.508,9.852c0.039,0,2.089,0.006,2.089,0.006
			c-0.343-0.264-3.776-3.033-4.067-9.648c-0.171-3.889,0.002-18.372-0.228-21.396v-0.018c-0.104-1.363-0.367-2.588-0.791-3.676
			c-0.518-1.306-1.276-2.462-2.284-3.471c-0.998-0.996-2.177-1.752-3.54-2.268l0.018,0.018c-0.928-0.367-2.097-0.636-3.505-0.808
			h0.034c-2.749-0.343-6.003-0.51-9.759-0.499h-0.086c-4.089-0.011-7.354,0.155-9.793,0.499c-1.367,0.185-2.495,0.454-3.385,0.808
			h-0.034c-1.375,0.515-2.548,1.266-3.521,2.25c-0.997,0.998-1.76,2.16-2.285,3.488c-0.399,1.02-0.665,2.228-0.791,3.625
			c-0.273,3.012-0.399,6.465-0.378,10.359c0,3.701,0.126,7.078,0.378,10.138c0.114,1.407,0.385,2.635,0.809,3.676
			c0.517,1.317,1.271,2.478,2.27,3.474c0.983,0.983,2.165,1.739,3.539,2.269h-0.018c0.899,0.344,2.046,0.604,3.437,0.791
			C115.792,61.159,122.103,61.268,126.923,61.262z"/>
	</g>
	<g>
		<g>
			<path fill="#FFFFFF" d="M168.409,33.948c0.462,0.036,0.829,0.078,1.106,0.128c0.285,0.049,0.56,0.127,0.819,0.234
				c0.256,0.085,0.494,0.202,0.714,0.352c0.52,0.327,0.938,0.779,1.259,1.354c0.154,0.32,0.272,0.64,0.354,0.959
				c0.063,0.313,0.095,0.654,0.095,1.023c0,0.717-0.148,1.366-0.446,1.95c-0.299,0.597-0.719,1.062-1.259,1.396
				c-0.427,0.265-0.938,0.459-1.534,0.586c-0.576,0.121-1.48,0.183-2.719,0.183h-1.577v4.051h-1.98V33.884h3.56
				C167.417,33.884,167.954,33.905,168.409,33.948z M169.698,36.1c-0.61-0.383-1.77-0.575-3.476-0.575h-1.002v4.979h1.002
				c1.72,0,2.878-0.179,3.476-0.533c0.604-0.36,0.905-0.983,0.905-1.864C170.604,37.153,170.302,36.485,169.698,36.1z
				 M177.107,38.606v0.446v3.062v4.052h-2.167v-4.052v-3.508H177.107L177.107,38.606z M174.941,37.358v-1.632h2.167v1.632H174.941z"
				/>
		</g>
		<g>
			<polygon fill="#FFFFFF" points="185.413,41.38 189.4,36.88 187.9,35.456 184.121,39.967 180.39,35.452 178.939,36.903 
				182.87,41.399 178.696,46.335 181.388,46.335 184.152,42.878 186.938,46.335 189.606,46.335 			"/>
		</g>
	</g>
</g>
</svg>
